<?xml version="1.0" encoding="utf-8"?>
<!-- Generator: Adobe Illustrator 19.2.0, SVG Export Plug-In . SVG Version: 6.00 Build 0)  -->
<svg version="1.1" id="Capa_1" xmlns="http://www.w3.org/2000/svg" xmlns:xlink="http://www.w3.org/1999/xlink" x="0px" y="0px"
	 viewBox="0 0 400 400" style="enable-background:new 0 0 400 400;" xml:space="preserve">
<style type="text/css">
	.st0{fill:#F35956;}
</style>
<g>
	<path class="st0" d="M382.7,182.7H59.1l77.2-77.2c6.8-6.8,6.8-17.7,0-24.5c-6.8-6.8-17.7-6.8-24.5,0L5.1,187.8
		c-6.8,6.8-6.8,17.7,0,24.5L111.8,319c3.4,3.4,7.8,5.1,12.2,5.1c4.4,0,8.9-1.7,12.2-5.1c6.8-6.8,6.8-17.7,0-24.5l-77.2-77.2h323.6
		c9.6,0,17.3-7.8,17.3-17.3C400,190.4,392.3,182.7,382.7,182.7z"/>
</g>
</svg>
