<?xml version="1.0" encoding="utf-8"?>
<!-- Generator: Adobe Illustrator 19.2.0, SVG Export Plug-In . SVG Version: 6.00 Build 0)  -->
<svg version="1.1" id="Capa_1" xmlns="http://www.w3.org/2000/svg" xmlns:xlink="http://www.w3.org/1999/xlink" x="0px" y="0px"
	 viewBox="0 0 508.5 508.5" style="enable-background:new 0 0 508.5 508.5;" xml:space="preserve">
<style type="text/css">
	.st0{fill:#F05752;}
</style>
<g>
	<g>
		<g>
			<path class="st0" d="M473,0L314.8,0c-17.8,0-32.2,14.4-32.1,32.2v161c0,17.8,14.4,32.2,32.2,32.2c17.8,0,32.2-14.4,32.2-32.2
				v-80.9c47.2,32.8,92.3,73,92.3,145.4c0,102.2-82.7,185.4-185,185.4S69,359.9,69,257.7c0-80.2,51.4-151.1,127.6-176.1
				c17.2-5.7,26.5-24.2,20.8-41.4c-5.7-17.2-24.2-26.5-41.3-20.9C72.7,53.2,3.4,149,3.4,257.6c0,138.3,112.5,250.9,250.9,250.9
				s250.9-112.6,250.9-250.9c0-115.1-63.3-156.9-107.3-193.3H473c17.8,0,32.2-14.3,32.2-32.2C505.2,14.4,490.7,0,473,0z"/>
		</g>
	</g>
</g>
</svg>
